#!OML:ASF E:\motion texture\Top Level 1\Subject 1\Session 1\male.ASF
:FULLY-SPECIFIED
:DEGREES
214
root 12.3087 16.5215 5.71893 106.029 -84.0899 -100.233
lowerback 14.7128 -1.33685 1.88018
upperback 7.1248 -1.90596 4.43123
thorax -0.607697 -1.19029 3.87037
lowerneck -18.3435 0.158953 -2.99445
upperneck 3.06599 0.189136 6.47149
head 3.83297 0.371423 2.50814
rclavicle -9.93923e-015 3.57812e-015
rhumerus 24.1121 17.9395 -81.4127
rradius 65.4817
rwrist 26.7401
rhand -24.4381 -25.5671
rfingers 7.12502
rthumb 2.05426 -55.5369
lclavicle -9.93923e-015 3.57812e-015
lhumerus 27.1457 -29.391 101.019
lradius 56.3884
lwrist 31.7979
lhand -20.7539 52.4194
lfingers 7.12502
lthumb 5.61197 82.3251
rfemur -40.5297 -1.31475 20.2528
rtibia 75.4412
rfoot -0.336804 -12.8023
rtoes 3.78321
lfemur -43.2402 5.10488 -17.0397
ltibia 51.3868
lfoot -11.4163 5.2116
ltoes -1.46934
215
root 12.1313 16.5306 5.73776 107.388 -84.2281 -101.634
lowerback 14.6648 -1.40388 1.75887
upperback 7.14496 -2.01368 4.39693
thorax -0.552761 -1.24662 3.91626
lowerneck -18.4155 0.206368 -3.01176
upperneck 3.11236 0.260394 6.41093
head 3.85435 0.404594 2.49884
rclavicle -6.95746e-015 4.37326e-015
rhumerus 22.4887 18.0537 -81.8529
rradius 65.7548
rwrist 26.5169
rhand -24.5278 -25.8688
rfingers 7.12502
rthumb 1.96759 -55.8394
lclavicle -6.95746e-015 4.37326e-015
lhumerus 26.1008 -29.795 101.122
lradius 56.2819
lwrist 32.1012
lhand -20.8189 52.4655
lfingers 7.12502
lthumb 5.54916 82.3728
rfemur -41.0881 -1.25392 20.0233
rtibia 74.6101
rfoot -0.608441 -13.4276
rtoes 4.08258
lfemur -42.688 5.075 -17.2737
ltibia 51.7795
lfoot -12.1417 5.32028
ltoes -1.42827
216
root 11.9547 16.5415 5.75556 108.824 -84.3632 -103.095
lowerback 14.6052 -1.47152 1.64151
upperback 7.15827 -2.12106 4.36406
thorax -0.498729 -1.30248 3.96082
lowerneck -18.4803 0.258789 -3.02453
upperneck 3.15345 0.338095 6.34365
head 3.87271 0.440388 2.48716
rclavicle 1.45113e-014 -1.09729e-013
rhumerus 20.8839 18.1624 -82.2798
rradius 66.0515
rwrist 26.2767
rhand -24.6493 -26.1947
rfingers 7.12502
rthumb 1.85029 -56.1664
lclavicle 1.45113e-014 -1.09729e-013
lhumerus 25.0362 -30.19 101.227
lradius 56.2107
lwrist 32.4167
lhand -20.7947 52.5673
lfingers 7.12502
lthumb 5.57259 82.4741
rfemur -41.6228 -1.19919 19.8058
rtibia 73.6385
rfoot -0.917649 -14.0089
rtoes 4.36168
lfemur -42.1136 5.04082 -17.5028
ltibia 52.1072
lfoot -12.8783 5.42946
ltoes -1.43118
217
root 11.7789 16.5539 5.77232 110.322 -84.4931 -104.602
lowerback 14.5343 -1.53982 1.53026
upperback 7.16353 -2.22776 4.33346
thorax -0.446987 -1.35761 4.00368
lowerneck -18.5349 0.316401 -3.03088
upperneck 3.1892 0.422202 6.26785
head 3.88757 0.478688 2.47222
rclavicle 2.50469e-014 3.97569e-015
rhumerus 19.2995 18.2624 -82.6951
rradius 66.371
rwrist 26.0153
rhand -24.7947 -26.5453
rfingers 7.12502
rthumb 1.70984 -56.5182
lclavicle 2.50469e-014 3.97569e-015
lhumerus 23.9498 -30.5745 101.338
lradius 56.1773
lwrist 32.7405
lhand -20.8022 52.5516
lfingers 7.12502
lthumb 5.56537 82.4585
rfemur -42.1315 -1.151 19.6021
rtibia 72.5299
rfoot -1.26006 -14.5387
rtoes 4.64731
lfemur -41.5168 5.00048 -17.7236
ltibia 52.365
lfoot -13.6182 5.53245
ltoes -1.50002
218
root 11.6038 16.5678 5.78803 111.888 -84.6179 -106.164
lowerback 14.4531 -1.60834 1.42492
upperback 7.16221 -2.33335 4.30449
thorax -0.396636 -1.41184 4.04422
lowerneck -18.5869 0.378701 -3.03175
upperneck 3.2237 0.511944 6.18578
head 3.90145 0.519386 2.45488
rclavicle -1.39149e-015 -1.39149e-014
rhumerus 17.7415 18.3522 -83.0992
rradius 66.7129
rwrist 25.7282
rhand -24.9636 -26.9261
rfingers 7.12502
rthumb 1.54672 -56.9002
lclavicle -1.39149e-015 -1.39149e-014
lhumerus 22.848 -30.9496 101.452
lradius 56.1827
lwrist 33.0749
lhand -20.7477 52.5372
lfingers 7.12502
lthumb 5.61791 82.4428
rfemur -42.611 -1.10954 19.4116
rtibia 71.2893
rfoot -1.6268 -15.0068
rtoes 4.90733
lfemur -40.8957 4.95211 -17.9343
ltibia 52.5476
lfoot -14.3377 5.63582
ltoes -1.62182
219
root 11.4292 16.5829 5.80258 113.514 -84.7385 -107.769
lowerback 14.3601 -1.67681 1.32457
upperback 7.15311 -2.43743 4.27658
thorax -0.34813 -1.46487 4.0822
lowerneck -18.632 0.445056 -3.02627
upperneck 3.25566 0.606186 6.09855
head 3.91335 0.561933 2.43523
rclavicle -1.39149e-015 1.43125e-014
rhumerus 16.2106 18.4277 -83.4939
rradius 67.0771
rwrist 25.4163
rhand -25.1475 -27.3376
rfingers 7.12502
rthumb 1.36914 -57.3129
lclavicle -1.39149e-015 1.43125e-014
lhumerus 21.7305 -31.3167 101.569
lradius 56.2281
lwrist 33.416
lhand -20.6786 52.4834
lfingers 7.12502
lthumb 5.68469 82.3871
rfemur -43.0621 -1.07619 19.233
rtibia 69.925
rfoot -2.014 -15.4066
rtoes 5.13853
lfemur -40.2542 4.89698 -18.1373
ltibia 52.656
lfoot -15.0266 5.751
ltoes -1.78889
220
root 11.2552 16.5992 5.81592 115.176 -84.857 -109.397
lowerback 14.2555 -1.74487 1.22755
upperback 7.13578 -2.53966 4.24994
thorax -0.302085 -1.51655 4.11877
lowerneck -18.6679 0.514443 -3.01447
upperneck 3.28389 0.703574 6.00628
head 3.92268 0.605635 2.41314
rclavicle 2.80286e-014 -1.11319e-014
rhumerus 14.7088 18.4858 -83.8785
rradius 67.4631
rwrist 25.0782
rhand -25.3391 -27.7778
rfingers 7.12502
rthumb 1.18404 -57.7543
lclavicle 2.80286e-014 -1.11319e-014
lhumerus 20.6002 -31.6781 101.689
lradius 56.3121
lwrist 33.7643
lhand -20.5996 52.3944
lfingers 7.12502
lthumb 5.76091 82.296
rfemur -43.4834 -1.05445 19.0648
rtibia 68.4445
rfoot -2.41217 -15.7326
rtoes 5.30912
lfemur -39.5942 4.83373 -18.3349
ltibia 52.6952
lfoot -15.6883 5.86064
ltoes -1.98225
221
root 11.0816 16.6165 5.828 116.874 -84.9745 -111.046
lowerback 14.1397 -1.81248 1.13335
upperback 7.11028 -2.64002 4.22387
thorax -0.258601 -1.56683 4.15344
lowerneck -18.6951 0.586261 -2.99733
upperneck 3.30827 0.803352 5.91076
head 3.92951 0.650219 2.38927
rclavicle -2.98177e-014 -3.18055e-014
rhumerus 13.2387 18.526 -84.2521
rradius 67.871
rwrist 24.7126
rhand -25.5246 -28.2489
rfingers 7.12502
rthumb 1.00494 -58.2263
lclavicle -2.98177e-014 -3.18055e-014
lhumerus 19.4555 -32.032 101.816
lradius 56.4362
lwrist 34.1146
lhand -20.5315 52.2371
lfingers 7.12502
lthumb 5.82669 82.137
rfemur -43.8735 -1.0429 18.9045
rtibia 66.8572
rfoot -2.81439 -15.9807
rtoes 5.42574
lfemur -38.9167 4.76287 -18.5288
ltibia 52.6716
lfoot -16.3248 5.95757
ltoes -2.19508
222
root 10.9084 16.6348 5.83878 118.585 -85.093 -112.696
lowerback 14.0126 -1.87969 1.04063
upperback 7.07661 -2.73871 4.19852
thorax -0.21758 -1.61585 4.18716
lowerneck -18.7137 0.659771 -2.9761
upperneck 3.32931 0.904701 5.81318
head 3.93407 0.695358 2.36413
rclavicle -4.49253e-014 5.56597e-015
rhumerus 11.8044 18.5481 -84.6136
rradius 68.2985
rwrist 24.3122
rhand -25.7071 -28.7553
rfingers 7.12502
rthumb 0.828588 -58.7334
lclavicle -4.49253e-014 5.56597e-015
lhumerus 18.3009 -32.3809 101.946
lradius 56.5984
lwrist 34.4662
lhand -20.4552 52.0445
lfingers 7.12502
lthumb 5.90031 81.9424
rfemur -44.2316 -1.0437 18.7503
rtibia 65.1707
rfoot -3.20721 -16.145
rtoes 5.51273
lfemur -38.2242 4.68189 -18.7204
ltibia 52.5884
lfoot -16.9311 6.05097
ltoes -2.42572
223
root 10.7356 16.6538 5.8482 120.295 -85.214 -114.332
lowerback 13.8752 -1.94648 0.949286
upperback 7.03462 -2.83566 4.17358
thorax -0.179737 -1.66354 4.21968
lowerneck -18.7224 0.734336 -2.95053
upperneck 3.3466 1.0067 5.71369
head 3.93609 0.740607 2.33761
rclavicle -3.39922e-014 2.50469e-014
rhumerus 10.4064 18.5516 -84.9625
rradius 68.7457
rwrist 23.8715
rhand -25.8743 -29.2961
rfingers 7.12502
rthumb 0.667135 -59.2748
lclavicle -3.39922e-014 2.50469e-014
lhumerus 17.1378 -32.725 102.08
lradius 56.7979
lwrist 34.8148
lhand -20.3682 51.8189
lfingers 7.12502
lthumb 5.98437 81.7144
rfemur -44.557 -1.05793 18.6013
rtibia 63.395
rfoot -3.56536 -16.2126
rtoes 5.55159
lfemur -37.5187 4.59041 -18.9102
ltibia 52.451
lfoot -17.5075 6.13792
ltoes -2.66907
